<?xml version="1.0" encoding="utf-8"?>
<!-- Generator: Adobe Illustrator 21.0.0, SVG Export Plug-In . SVG Version: 6.00 Build 0)  -->
<svg version="1.1" id="Layer_1" xmlns="http://www.w3.org/2000/svg" xmlns:xlink="http://www.w3.org/1999/xlink" x="0px" y="0px"
	 viewBox="0 0 269 46" style="enable-background:new 0 0 269 46;" xml:space="preserve">
<style type="text/css">
	.st0{fill:#5F98F8;}
</style>
<g>
	<path class="st0" d="M4.5,22.7C4.7,10.4,14.3,0.7,26.2,1c12.1,0.3,21.4,10.6,20.9,22.7c-0.5,11.5-9.8,21.1-21.8,20.8
		C13.6,44.1,4.6,34.5,4.5,22.7z M41.5,14.3c-2.1-4.5-8.3-10.5-17.4-9.7c-5.6,0.5-12.8,5.3-14,9.7c0.3,0,0.6,0,0.9,0
		c2.2,0,4.3,0,6.5,0c1.5,0,1.7,0.3,1.7,1.8c0,4,0,7.9,0,11.9c0,1.3,0.5,1.7,1.7,1.7c1.6,0,3.2,0,4.8,0c1.1,0,1.5,0.4,1.5,1.5
		c0,0.3,0,0.5,0,0.8c0,1.3-0.4,1.7-1.7,1.7c-3.2,0-6.3,0-9.5,0c-1.4,0-1.6-0.3-1.6-1.7c0-4.5,0-8.9,0-13.4c0-0.6-0.2-0.8-0.8-0.8
		c-1.5,0-3,0-4.5,0c-0.5,0-0.7,0.2-0.8,0.7c-0.6,2.4-0.7,4.9-0.2,7.3c1.5,7.5,5.9,12.6,13.3,14.5c7.3,1.9,13.6-0.4,18.3-6.4
		c3.4-4.3,4.5-9.3,3.5-14.7c-0.1-0.4,0-0.9-0.7-0.9c-2.1,0-4.1,0-6.2,0c-0.8,0-1.3,0.5-1.3,1.4c0,0.2,0,0.4,0,0.6
		c0,3.9,0,7.8,0,11.6c0,1.3-0.4,1.7-1.7,1.7c-0.5,0-1,0-1.6,0c-1.2,0-1.5-0.4-1.5-1.6c0-4,0-8.1,0-12.1c0-1.2-0.5-1.7-1.7-1.7
		c-1.7,0-3.4,0-5.2,0c-0.8,0-1.2-0.4-1.3-1.3c0-0.3,0-0.6,0-0.9c0-1.6,0.3-1.9,1.8-1.9c5.4,0,10.8,0,16.3,0
		C40.7,14.3,41.1,14.3,41.5,14.3z"/>
	<path class="st0" d="M135.9,35.1c-1.5-3.3-3-6.6-4.5-9.9c-0.1,0-0.1,0-0.2,0c-0.2,1-0.4,2-0.6,3c-0.4,2.1-0.7,4.1-1.2,6.2
		c-0.1,0.3-0.3,0.7-0.5,0.7c-2.1,0-4.1,0-6.2,0c0.4-2.3,0.8-4.5,1.3-6.7c1.4-7.3,2.8-14.6,4.2-21.9c0.1-0.7,0.3-1.1,1.1-1.1
		c1.9-0.1,3.8-0.3,5.9-0.5c-1.2,6-2.3,11.9-3.4,17.8c0,0,0.1,0.1,0.1,0.1c0.2-0.2,0.4-0.4,0.6-0.7c2-2.4,4.1-4.7,6.1-7.1
		c0.4-0.4,0.7-0.6,1.3-0.6c3.9,0,7.7,0,11.7,0c0.5,4.6,1.1,9.2,1.6,13.7c0.1,0,0.1,0,0.2,0c0.7-1.4,1.4-2.9,2.1-4.3
		c1.4-2.9,2.7-5.9,4.1-8.8c0.1-0.2,0.5-0.5,0.7-0.5c2.1,0,4.3,0,6.5,0c-0.1,0.2-0.2,0.4-0.2,0.6c-4.2,7.8-8.3,15.6-12.5,23.4
		c-0.5,1-1.2,2-1.9,2.9c-2.4,3.3-5.9,4.1-9.7,3c-1.1-0.3-2.2-0.9-3.3-1.4c1-1.8,1.8-3.3,2.7-5c0.5,0.3,0.9,0.5,1.3,0.8
		c1.6,0.8,3,0.5,4-1c0.4-0.6,0.8-1.2,1.1-1.9c0.1-0.2,0.2-0.5,0.2-0.7c-1-6.1-2.1-12.1-3.1-18.2c0,0-0.1-0.1-0.1-0.2
		c-0.2,0.2-0.4,0.3-0.6,0.5c-2,2.1-4,4.3-6.1,6.4c-0.4,0.4-0.5,0.7-0.2,1.2c1.5,3,3,6,4.6,9.1c0.2,0.4,0.3,0.7,0.5,1.2
		C140.8,35.1,138.4,35.1,135.9,35.1z"/>
	<path class="st0" d="M252.7,5c-1.2,6-2.3,11.9-3.4,17.8c0,0,0.1,0.1,0.1,0.1c0.2-0.2,0.4-0.4,0.6-0.7c2.1-2.4,4.1-4.8,6.2-7.2
		c0.3-0.4,0.6-0.5,1.1-0.5c2.3,0,4.7,0,7.2,0c-0.7,0.7-1.3,1.4-1.9,2c-2.2,2.4-4.4,4.7-6.7,7c-0.4,0.5-0.5,0.8-0.2,1.4
		c1.5,3,3,6,4.5,9c0.2,0.4,0.3,0.7,0.5,1.2c-2.5,0-4.9,0-7.3,0c-1.5-3.3-3-6.6-4.5-9.9c-0.1,0-0.1,0-0.2,0c-0.2,1-0.4,2-0.6,3.1
		c-0.4,2.1-0.7,4.1-1.2,6.2c-0.1,0.3-0.3,0.7-0.5,0.7c-2.1,0-4.1,0-6.2,0c0.4-2.3,0.8-4.5,1.3-6.7c1.4-7.3,2.8-14.6,4.2-21.9
		c0.1-0.7,0.3-1.1,1.1-1.1C248.7,5.4,250.6,5.2,252.7,5z"/>
	<path class="st0" d="M91.8,14.6c-0.6,3.2-1.2,6.4-1.8,9.5c-0.2,1.1-0.4,2.2-0.5,3.3c-0.3,2.5,1.4,3.2,3.3,2.7
		c0.9-0.2,1.7-0.9,2.5-1.4c0.2-0.1,0.3-0.5,0.4-0.7c0.8-4.2,1.6-8.4,2.4-12.6c0-0.2,0.1-0.5,0.2-0.7c2.2,0,4.4,0,6.6,0
		c-0.7,3.7-1.4,7.3-2.1,10.9c-0.6,2.9-1.1,5.8-1.7,8.7c-0.1,0.6-0.3,0.8-0.9,0.9c-2,0.2-4,0.5-6,0.7c0.2-1.1,0.4-2.2,0.6-3.4
		c-0.3,0.3-0.5,0.5-0.7,0.7c-1.8,1.6-3.8,2.8-6.4,2.8c-3.5-0.1-5.7-2.5-5.2-6.1c0.5-3.6,1.2-7.2,1.9-10.8c0.2-1.3,0.5-2.6,0.7-3.8
		c0-0.2,0.3-0.6,0.4-0.6C87.5,14.5,89.6,14.6,91.8,14.6z"/>
	<path class="st0" d="M215.7,14.6c2.2,0,4.4,0,6.6,0c-0.5,2.6-1,5.1-1.5,7.7c-0.8,4-1.5,8-2.3,11.9c-0.1,0.5-0.2,0.9-0.9,0.9
		c-2,0.2-4,0.5-6,0.7c0.2-1.1,0.4-2.1,0.6-3.4c-0.3,0.3-0.5,0.5-0.7,0.6c-1.9,1.7-3.9,2.9-6.5,2.8c-3.3-0.1-5.5-2.5-5.1-5.9
		c0.3-2.8,0.9-5.6,1.4-8.5c0.4-2.1,0.8-4.2,1.2-6.2c0.1-0.5,0.3-0.8,0.8-0.7c2,0,4,0,6,0c-0.4,2.4-0.9,4.7-1.3,7
		c-0.3,1.7-0.7,3.5-1,5.2c-0.5,2.7,1.1,4.1,3.6,3.2c0.7-0.3,1.4-0.8,2-1.3c0.2-0.2,0.4-0.6,0.4-0.9c0.8-4.2,1.6-8.4,2.4-12.6
		C215.6,15,215.6,14.8,215.7,14.6z"/>
	<path class="st0" d="M177.2,35.2c-2.3,0-4.5,0-6.8,0c1.4-7.3,2.8-14.5,4.2-21.8c-2.9,0-5.7,0-8.7,0c0.2-1.1,0.4-2,0.5-3
		c0.1-0.8,0.3-1.6,0.4-2.3c0.1-0.5,0.3-0.7,0.8-0.7c0.9,0,1.8,0,2.7,0c6.6,0,13.2,0,19.8,0c0.4,0,0.7,0,1.2,0
		c-0.4,1.9-0.7,3.8-1,5.6c0,0.2-0.5,0.4-0.7,0.4c-2.4,0-4.8,0-7.2,0c-0.6,0-0.9,0.1-1,0.8c-1.3,6.8-2.6,13.5-3.9,20.3
		C177.4,34.7,177.3,34.9,177.2,35.2z"/>
	<path class="st0" d="M73.5,7.5c-1.4,7.3-2.7,14.5-4.1,21.8c3.8,0,7.6,0,11.4,0c-0.3,1.5-0.5,2.8-0.8,4.1c-0.3,1.8-0.4,1.8-2.1,1.8
		c-5.2,0-10.4,0-15.6,0c-0.3,0-0.6,0-0.9,0c0.4-2.3,0.8-4.4,1.3-6.6c1.3-6.8,2.6-13.6,3.9-20.4c0.1-0.6,0.3-0.8,0.9-0.8
		c1.8,0,3.6,0,5.4,0C73,7.4,73.2,7.5,73.5,7.5z"/>
	<path class="st0" d="M122.5,21c-1.1-0.5-2.2-1.1-3.3-1.4c-2.2-0.7-4.4-0.7-6.2,1.1c-1.8,1.9-2.5,4.2-1.9,6.7c0.4,2,2.2,3.3,4.4,3.2
		c1.5,0,2.9-0.5,4.4-0.7c0.3,0,0.5-0.1,0.9-0.2c0.3,1.5,0.6,3,0.8,4.5c0,0.2-0.3,0.6-0.6,0.7c-2.3,0.9-4.7,1.2-7.2,1
		c-2.3-0.1-4.3-0.8-6.2-2.2c-2.1-1.7-3.2-3.9-3.3-6.6c-0.4-6.3,3.3-10.9,7.7-12.4c4.1-1.4,8.2-0.8,12,1.1c0.2,0.1,0.4,0.4,0.3,0.6
		C123.8,17.9,123.1,19.4,122.5,21z"/>
	<path class="st0" d="M242,16c-0.7,1.7-1.3,3.3-2,5c-0.8-0.4-1.6-0.8-2.3-1.2c-1.3-0.6-2.7-0.9-4.1-0.7c-2.5,0.4-4.3,2.2-4.8,5
		c-0.2,0.9-0.3,2-0.1,2.9c0.4,2.2,2.1,3.6,4.4,3.5c1.5,0,2.9-0.4,4.4-0.7c0.3,0,0.5-0.2,0.9-0.3c0.3,1.6,0.6,3.1,0.8,4.6
		c0,0.2-0.3,0.5-0.5,0.6c-1.3,0.4-2.6,0.8-3.9,1c-3.4,0.4-6.6,0.1-9.4-2.1c-2.1-1.6-3.2-3.9-3.4-6.6c-0.4-6.3,3.3-10.8,7.7-12.4
		C233.2,13.3,239.1,13.9,242,16z"/>
	<path class="st0" d="M183.6,35.2c0.5-2.6,0.9-5,1.4-7.5c0.8-4,1.5-8,2.3-11.9c0.1-0.7,0.4-0.9,1-1c2-0.2,3.9-0.5,5.9-0.7
		c-0.2,0.9-0.3,1.8-0.5,2.6c2.3-2.5,4.7-3.8,8-1.9c-0.5,2.1-0.9,4-1.4,5.9c-1.1-0.2-2.1-0.5-3.1-0.6c-1.9-0.1-3.3,0.8-4.4,2.3
		c-0.4,0.6-0.5,1.4-0.6,2.2c-0.7,3.3-1.3,6.6-1.9,9.9c-0.1,0.6-0.3,0.8-0.9,0.8C187.6,35.2,185.7,35.2,183.6,35.2z"/>
</g>
</svg>
